<svg xmlns="http://www.w3.org/2000/svg" viewBox="-26 -110 68 115" width="204" height="345" data-character="magic-archer-hero" data-mu="50" data-rig="biped">
<defs><clipPath id="magic-archer-hero-c1"><path d="M13.1 -74.4C13.1 -72.9 12.1 -71.8 10.8 -71.8C9.5 -71.8 8.5 -72.9 8.5 -74.4C8.5 -75.9 9.5 -77 10.8 -77C12.1 -77 13.1 -75.9 13.1 -74.4Z"/></clipPath><clipPath id="magic-archer-hero-c2"><path d="M5.7 -74.4C5.7 -73.1 4.8 -72 3.6 -72C2.4 -72 1.5 -73.1 1.5 -74.4C1.5 -75.7 2.4 -76.8 3.6 -76.8C4.8 -76.8 5.7 -75.7 5.7 -74.4Z"/></clipPath><clipPath id="magic-archer-hero-c3"><path d="M14.2 -74.4C14.2 -72.2 12.7 -70.5 10.8 -70.5C8.9 -70.5 7.4 -72.2 7.4 -74.4C7.4 -76.6 8.9 -78.3 10.8 -78.3C12.7 -78.3 14.2 -76.6 14.2 -74.4Z"/></clipPath><clipPath id="magic-archer-hero-c4"><path d="M5.8 -74.6C5.8 -73.2 4.8 -72.1 3.6 -72.1C2.4 -72.1 1.4 -73.2 1.4 -74.6C1.4 -76 2.4 -77.1 3.6 -77.1C4.8 -77.1 5.8 -76 5.8 -74.6Z"/></clipPath><clipPath id="magic-archer-hero-c5"><path d="M7 -67.7C7.1 -68 8 -68 8.6 -68C9.2 -68 10.1 -68 10.3 -67.7C10.4 -67.4 10 -66.5 9.6 -66.3C9.2 -66.1 8 -66.1 7.6 -66.3C7.2 -66.5 6.8 -67.4 7 -67.7Z"/></clipPath></defs>
<g data-part="coatBack" data-bone="cape" data-z="3" data-zb="46" data-form="base,decoy" data-bb="-22.1 -75.8 38.3 75.9"><path d="M-10 -70C-6 -75 2.7 -75 6 -70C9.3 -65 8.7 -50 10 -40C11.3 -30 15.3 -15.7 14 -10C12.7 -4.3 6 -6.3 2 -6C-2 -5.7 -6.3 -8 -10 -8C-13.7 -8 -18.7 -0.7 -20 -6C-21.3 -11.3 -19.7 -29.3 -18 -40C-16.3 -50.7 -14 -65 -10 -70Z" fill="#4a3a90" data-mat="cloth" data-bb="-21.3 -75 36.7 74.3"/></g>
<g data-part="lining" data-bone="cape" data-z="3.5" data-zb="46.5" data-form="base,decoy" data-team="1" data-bb="-21.6 -46.5 11.8 46.3"><path d="M-17 -40C-15.7 -45.7 -12.8 -45 -12 -40C-11.2 -35 -10.7 -15.7 -12 -10C-13.3 -4.3 -19.2 -1 -20 -6C-20.8 -11 -18.3 -34.3 -17 -40Z" fill="#ff00f1" data-mat="cloth" data-bb="-20.8 -45.7 10.2 44.7" data-line="#ff00f4"/><g data-lod="1"><path d="M-14.9 -32C-14.9 -31.6 -15.2 -31.3 -15.6 -31.3C-16 -31.3 -16.3 -31.6 -16.3 -32C-16.3 -32.4 -16 -32.7 -15.6 -32.7C-15.2 -32.7 -14.9 -32.4 -14.9 -32Z" fill="#ff00f5"/><path d="M-13.3 -24C-13.3 -23.6 -13.6 -23.3 -14 -23.3C-14.4 -23.3 -14.7 -23.6 -14.7 -24C-14.7 -24.4 -14.4 -24.7 -14 -24.7C-13.6 -24.7 -13.3 -24.4 -13.3 -24Z" fill="#ff00f5"/><path d="M-15.7 -16C-15.7 -15.6 -16 -15.3 -16.4 -15.3C-16.8 -15.3 -17.1 -15.6 -17.1 -16C-17.1 -16.4 -16.8 -16.7 -16.4 -16.7C-16 -16.7 -15.7 -16.4 -15.7 -16Z" fill="#ff00f5"/><path d="M-12.7 -12C-12.7 -11.6 -13 -11.3 -13.4 -11.3C-13.8 -11.3 -14.1 -11.6 -14.1 -12C-14.1 -12.4 -13.8 -12.7 -13.4 -12.7C-13 -12.7 -12.7 -12.4 -12.7 -12Z" fill="#ff00f5"/><path d="M-15.6 -32L-14 -24L-16.4 -16" fill="none" stroke="#ff00f2" stroke-width="0.4" stroke-linecap="round" stroke-linejoin="round"/></g></g>
<g data-part="legB" data-bone="legB" data-z="6" data-form="base,decoy" data-bb="-11.1 -45.8 12 37.2"><path d="M-10 -40.1C-9.8 -44.5 -9.2 -42.9 -8.5 -43.6C-7.7 -44.3 -6 -45 -4.9 -45C-3.8 -45 -2.1 -44.2 -1.4 -43.5C-0.7 -42.7 -0.1 -44.3 0 -39.9C0.1 -35.5 -0.6 -18.3 -0.9 -13.9C-1.2 -9.5 -1.6 -11.4 -2.3 -10.7C-3 -10 -4.6 -9.4 -5.6 -9.4C-6.6 -9.4 -8.1 -10.1 -8.8 -10.8C-9.5 -11.5 -9.9 -9.7 -10.1 -14.1C-10.3 -18.5 -10.2 -35.7 -10 -40.1Z" fill="#3a3048" data-mat="cloth" data-bb="-10.3 -45 10.4 35.6"/></g>
<g data-part="footB" data-bone="footB" data-z="7" data-form="base,decoy" data-bb="-12.6 -21.6 17.9 22.4"><path d="M-10.1 -18C-8.5 -20 -2.6 -20.8 -1.2 -19C0.3 -17.2 -2.1 -9.6 -1.3 -7C-0.5 -4.4 2.8 -4.6 3.7 -3.4C4.5 -2.2 3.9 0 3.9 0L-10.9 0C-10.9 0 -11.3 -4 -11.1 -7C-11 -10 -11.8 -16 -10.1 -18Z" fill="#4a3424" data-mat="leather" data-bb="-11.8 -20.8 16.3 20.8"/><path d="M-6.1 -12L-4.3 -12Q-3.7 -12 -3.7 -11.4L-3.7 -10.2Q-3.7 -9.6 -4.3 -9.6L-6.1 -9.6Q-6.7 -9.6 -6.7 -10.2L-6.7 -11.4Q-6.7 -12 -6.1 -12Z" fill="#c8a046" data-mat="gold" data-bb="-6.7 -12 3 2.4" data-lod="1"/></g>
<g data-part="legF" data-bone="legF" data-z="8" data-form="base,decoy" data-bb="-0.9 -45.8 12 37.2"><path d="M0 -39.9C0.1 -44.3 0.7 -42.7 1.4 -43.5C2.1 -44.2 3.8 -45 4.9 -45C6 -45 7.7 -44.3 8.5 -43.6C9.2 -42.9 9.8 -44.5 10 -40.1C10.2 -35.7 10.3 -18.5 10.1 -14.1C9.9 -9.7 9.5 -11.5 8.8 -10.8C8.1 -10.1 6.6 -9.4 5.6 -9.4C4.6 -9.4 3 -10 2.3 -10.7C1.6 -11.4 1.2 -9.5 0.9 -13.9C0.6 -18.3 -0.1 -35.5 0 -39.9Z" fill="#3a3048" data-mat="cloth" data-bb="-0.1 -45 10.4 35.6"/></g>
<g data-part="footF" data-bone="footF" data-z="9" data-form="base,decoy" data-bb="-1.1 -21.6 17.9 22.4"><path d="M1.3 -18C3 -20 8.9 -20.8 10.4 -19C11.8 -17.2 9.4 -9.6 10.2 -7C11 -4.4 14.3 -4.6 15.2 -3.4C16 -2.2 15.4 0 15.4 0L0.5 0C0.5 0 0.2 -4 0.3 -7C0.5 -10 -0.3 -16 1.3 -18Z" fill="#4a3424" data-mat="leather" data-bb="-0.3 -20.8 16.3 20.8"/><path d="M5.4 -12L7.2 -12Q7.8 -12 7.8 -11.4L7.8 -10.2Q7.8 -9.6 7.2 -9.6L5.4 -9.6Q4.8 -9.6 4.8 -10.2L4.8 -11.4Q4.8 -12 5.4 -12Z" fill="#c8a046" data-mat="gold" data-bb="4.8 -12 3 2.4" data-lod="1"/></g>
<g data-part="armB" data-bone="armB" data-z="12" data-zb="42" data-form="base,decoy" data-bb="-17.2 -73.5 13.9 26.6"><path d="M-13.5 -68.8C-12.8 -71.7 -12.4 -71.2 -11.6 -71.8C-10.8 -72.3 -9.1 -72.7 -8.2 -72.5C-7.2 -72.3 -5.8 -71.4 -5.2 -70.6C-4.7 -69.8 -4.1 -70.1 -4.5 -67.2C-4.9 -64.2 -7.1 -54 -7.9 -51.2C-8.6 -48.4 -8.9 -49 -9.6 -48.5C-10.4 -48 -11.9 -47.7 -12.8 -47.9C-13.6 -48 -15 -48.9 -15.5 -49.6C-16 -50.4 -16.4 -49.9 -16.1 -52.8C-15.8 -55.7 -14.2 -66 -13.5 -68.8Z" fill="#4a3a90" data-mat="cloth" data-bb="-16.4 -72.7 12.3 25"/></g>
<g data-part="handB" data-bone="handB" data-z="13" data-zb="43" data-form="base,decoy" data-bb="-15.8 -53.2 7.6 7.6"><path d="M-9 -49.4C-9 -47.7 -10.3 -46.4 -12 -46.4C-13.7 -46.4 -15 -47.7 -15 -49.4C-15 -51.1 -13.7 -52.4 -12 -52.4C-10.3 -52.4 -9 -51.1 -9 -49.4Z" fill="#e8c4a0" data-mat="skin" data-bb="-15 -52.4 6 6"/></g>
<g data-part="nockArrow" data-bone="handB" data-z="16" data-zb="44" data-form="base,decoy" data-glow="1" data-state="loaded" data-bb="-12.8 -52.8 33.8 6.8"><path d="M-12 -49.4L16 -49.4" fill="none" stroke="#fff0a8" stroke-width="1.6" stroke-linecap="round" stroke-linejoin="round"/><path d="M16 -51.6L21 -49.4L16 -47.2Z" fill="#fffbe0"/><path d="M5.4 -49.4C5.4 -47.5 3.9 -46 2 -46C0.1 -46 -1.4 -47.5 -1.4 -49.4C-1.4 -51.3 0.1 -52.8 2 -52.8C3.9 -52.8 5.4 -51.3 5.4 -49.4Z" fill="#fff0a8" opacity="0.3"/></g>
<g data-part="coat" data-bone="torso" data-z="20" data-zb="20" data-form="base,decoy" data-bb="-15.7 -74.2 31.5 66.7"><path d="M-9 -70C-7.3 -73.4 -4.7 -72.2 -2 -72.6C0.7 -73 4.8 -73 7 -72.6C9.2 -72.2 10.2 -73.4 11 -70C11.8 -66.6 11.8 -57.7 12 -52C12.2 -46.3 11.7 -42.3 12 -36C12.3 -29.7 15 -18 14 -14C13 -10 8 -8.3 6 -12C4 -15.7 3.3 -32 2 -36C0.7 -40 -0.7 -40 -2 -36C-3.3 -32 -4 -15.7 -6 -12C-8 -8.3 -13.1 -10 -14 -14C-14.9 -18 -11.9 -29.7 -11.6 -36C-11.3 -42.3 -12.4 -46.3 -12 -52C-11.6 -57.7 -10.7 -66.6 -9 -70Z" fill="#6a52b8" data-mat="cloth" data-bb="-14.9 -73.4 29.9 65.1"/><path d="M2 -72L2 -36" fill="none" stroke="#c8a046" stroke-width="0.8" stroke-linecap="round" stroke-linejoin="round" data-lod="1"/><path d="M3 -64C3 -63.4 2.6 -63 2 -63C1.4 -63 1 -63.4 1 -64C1 -64.6 1.4 -65 2 -65C2.6 -65 3 -64.6 3 -64Z" fill="#c8a046" data-mat="gold" data-bb="1 -65 2 2" data-lod="1"/><path d="M3 -56C3 -55.4 2.6 -55 2 -55C1.4 -55 1 -55.4 1 -56C1 -56.6 1.4 -57 2 -57C2.6 -57 3 -56.6 3 -56Z" fill="#c8a046" data-mat="gold" data-bb="1 -57 2 2" data-lod="1"/><path d="M3 -48C3 -47.4 2.6 -47 2 -47C1.4 -47 1 -47.4 1 -48C1 -48.6 1.4 -49 2 -49C2.6 -49 3 -48.6 3 -48Z" fill="#c8a046" data-mat="gold" data-bb="1 -49 2 2" data-lod="1"/><g data-lod="1"><path d="M-7.3 -60C-7.3 -59.6 -7.6 -59.3 -8 -59.3C-8.4 -59.3 -8.7 -59.6 -8.7 -60C-8.7 -60.4 -8.4 -60.7 -8 -60.7C-7.6 -60.7 -7.3 -60.4 -7.3 -60Z" fill="#e8e0ff"/><path d="M-5.3 -52C-5.3 -51.6 -5.6 -51.3 -6 -51.3C-6.4 -51.3 -6.7 -51.6 -6.7 -52C-6.7 -52.4 -6.4 -52.7 -6 -52.7C-5.6 -52.7 -5.3 -52.4 -5.3 -52Z" fill="#e8e0ff"/><path d="M-8.3 -45C-8.3 -44.6 -8.6 -44.3 -9 -44.3C-9.4 -44.3 -9.7 -44.6 -9.7 -45C-9.7 -45.4 -9.4 -45.7 -9 -45.7C-8.6 -45.7 -8.3 -45.4 -8.3 -45Z" fill="#e8e0ff"/><path d="M8.7 -58C8.7 -57.6 8.4 -57.3 8 -57.3C7.6 -57.3 7.3 -57.6 7.3 -58C7.3 -58.4 7.6 -58.7 8 -58.7C8.4 -58.7 8.7 -58.4 8.7 -58Z" fill="#e8e0ff"/><path d="M9.7 -48C9.7 -47.6 9.4 -47.3 9 -47.3C8.6 -47.3 8.3 -47.6 8.3 -48C8.3 -48.4 8.6 -48.7 9 -48.7C9.4 -48.7 9.7 -48.4 9.7 -48Z" fill="#e8e0ff"/><path d="M6.7 -40C6.7 -39.6 6.4 -39.3 6 -39.3C5.6 -39.3 5.3 -39.6 5.3 -40C5.3 -40.4 5.6 -40.7 6 -40.7C6.4 -40.7 6.7 -40.4 6.7 -40Z" fill="#e8e0ff"/><path d="M-8 -60L-6 -52L-9 -45" fill="none" stroke="#a898e0" stroke-width="0.4" stroke-linecap="round" stroke-linejoin="round"/></g></g>
<g data-part="arrowStars" data-bone="torso" data-z="21" data-zb="21" data-form="base,decoy" data-sig="1" data-glow="1" data-bb="-11.2 -62.6 25.4 20.4"><path d="M-10.3 -51.5L-1.7 -56.5" fill="none" stroke="#fff0a8" stroke-width="1" stroke-linecap="round" stroke-linejoin="round"/><path d="M-2.5 -57.9L0.6 -57.8L-0.9 -55.1Z" fill="#fffbe0"/><path d="M-9.4 -51.5C-9.4 -51 -9.8 -50.6 -10.3 -50.6C-10.8 -50.6 -11.2 -51 -11.2 -51.5C-11.2 -52 -10.8 -52.4 -10.3 -52.4C-9.8 -52.4 -9.4 -52 -9.4 -51.5Z" fill="#fffbe0"/><path d="M-5.1 -54C-5.1 -53.5 -5.5 -53.1 -6 -53.1C-6.5 -53.1 -6.9 -53.5 -6.9 -54C-6.9 -54.5 -6.5 -54.9 -6 -54.9C-5.5 -54.9 -5.1 -54.5 -5.1 -54Z" fill="#fffbe0"/><path d="M-0.8 -56.5C-0.8 -56 -1.2 -55.6 -1.7 -55.6C-2.2 -55.6 -2.6 -56 -2.6 -56.5C-2.6 -57 -2.2 -57.4 -1.7 -57.4C-1.2 -57.4 -0.8 -57 -0.8 -56.5Z" fill="#fffbe0"/><path d="M2.3 -61.7L11.7 -58.3" fill="none" stroke="#fff0a8" stroke-width="1" stroke-linecap="round" stroke-linejoin="round"/><path d="M12.2 -59.8L14.1 -57.4L11.2 -56.8Z" fill="#fffbe0"/><path d="M3.2 -61.7C3.2 -61.2 2.8 -60.8 2.3 -60.8C1.8 -60.8 1.4 -61.2 1.4 -61.7C1.4 -62.2 1.8 -62.6 2.3 -62.6C2.8 -62.6 3.2 -62.2 3.2 -61.7Z" fill="#fffbe0"/><path d="M7.9 -60C7.9 -59.5 7.5 -59.1 7 -59.1C6.5 -59.1 6.1 -59.5 6.1 -60C6.1 -60.5 6.5 -60.9 7 -60.9C7.5 -60.9 7.9 -60.5 7.9 -60Z" fill="#fffbe0"/><path d="M12.6 -58.3C12.6 -57.8 12.2 -57.4 11.7 -57.4C11.2 -57.4 10.8 -57.8 10.8 -58.3C10.8 -58.8 11.2 -59.2 11.7 -59.2C12.2 -59.2 12.6 -58.8 12.6 -58.3Z" fill="#fffbe0"/><path d="M1.1 -43.1L10.9 -44.9" fill="none" stroke="#fff0a8" stroke-width="1" stroke-linecap="round" stroke-linejoin="round"/><path d="M10.6 -46.4L13.5 -45.3L11.2 -43.3Z" fill="#fffbe0"/><path d="M2 -43.1C2 -42.6 1.6 -42.2 1.1 -42.2C0.6 -42.2 0.2 -42.6 0.2 -43.1C0.2 -43.6 0.6 -44 1.1 -44C1.6 -44 2 -43.6 2 -43.1Z" fill="#fffbe0"/><path d="M6.9 -44C6.9 -43.5 6.5 -43.1 6 -43.1C5.5 -43.1 5.1 -43.5 5.1 -44C5.1 -44.5 5.5 -44.9 6 -44.9C6.5 -44.9 6.9 -44.5 6.9 -44Z" fill="#fffbe0"/><path d="M11.8 -44.9C11.8 -44.4 11.4 -44 10.9 -44C10.4 -44 10 -44.4 10 -44.9C10 -45.4 10.4 -45.8 10.9 -45.8C11.4 -45.8 11.8 -45.4 11.8 -44.9Z" fill="#fffbe0"/></g>
<g data-part="belt" data-bone="hip" data-z="22" data-zb="22" data-form="base,decoy" data-bb="-12.8 -43.4 25.6 6.4"><path d="M-10.8 -42L10.8 -42Q12 -42 12 -40.8L12 -39.6Q12 -38.4 10.8 -38.4L-10.8 -38.4Q-12 -38.4 -12 -39.6L-12 -40.8Q-12 -42 -10.8 -42Z" fill="#4a3424" data-mat="leather" data-bb="-12 -42 24 3.6"/><path d="M1 -42.6L3.4 -42.6Q4.4 -42.6 4.4 -41.6L4.4 -38.8Q4.4 -37.8 3.4 -37.8L1 -37.8Q0 -37.8 0 -38.8L0 -41.6Q0 -42.6 1 -42.6Z" fill="#c8a046" data-mat="gold" data-bb="0 -42.6 4.4 4.8" data-lod="1"/></g>
<g data-part="emblem.blue" data-bone="torso" data-z="24" data-zb="24" data-form="base,decoy" data-lod="1" data-team="1" data-team-only="blue" data-bb="-8.5 -66.5 5 5"><path d="M-3.8 -64C-3.8 -62.8 -4.8 -61.8 -6 -61.8C-7.2 -61.8 -8.2 -62.8 -8.2 -64C-8.2 -65.2 -7.2 -66.2 -6 -66.2C-4.8 -66.2 -3.8 -65.2 -3.8 -64Z" fill="#ff00f5" stroke="#ff00f4" stroke-width="0.6160000000000001" stroke-linejoin="round"/></g>
<g data-part="emblem.red" data-bone="torso" data-z="24" data-zb="24" data-form="base,decoy" data-lod="1" data-team="1" data-team-only="red" data-bb="-8.7 -66.8 5.4 4.8"><path d="M-6.2 -66.2Q-6 -66.5 -5.8 -66.2L-3.8 -62.7Q-3.6 -62.4 -4 -62.4L-8 -62.4Q-8.4 -62.4 -8.2 -62.7Z" fill="#ff00f5" stroke="#ff00f4" stroke-width="0.6160000000000001" stroke-linejoin="round"/></g>
<g data-part="hair" data-bone="head" data-z="29" data-zb="33" data-form="base,decoy" data-bb="-9.8 -81.8 8.1 21.3"><path d="M-4 -76C-3.3 -73.7 -2.5 -68.3 -3 -66C-3.5 -63.7 -6 -61.3 -7 -62C-8 -62.7 -9 -67 -9 -70C-9 -73 -7.8 -79 -7 -80C-6.2 -81 -4.7 -78.3 -4 -76Z" fill="#5a4a6a" data-mat="hair" data-bb="-9 -81 6.5 19.7"/></g>
<g data-part="head" data-bone="head" data-z="30" data-zb="30" data-form="base,decoy" data-bb="-8.3 -85.9 23.9 24.4"><path d="M-6 -82C-4.5 -84.5 0.8 -85.1 4 -85C7.2 -84.9 11.2 -83.6 13 -81.6C14.8 -79.6 14.7 -75.6 14.6 -73C14.5 -70.4 13.9 -67.7 12.6 -66C11.3 -64.3 8.7 -62.9 6.6 -62.6C4.5 -62.3 1.9 -62.8 0 -64C-1.9 -65.2 -4 -67 -5 -70C-6 -73 -7.5 -79.5 -6 -82Z" fill="#e8c4a0" data-mat="skin" data-bb="-7.5 -85.1 22.3 22.8"/></g>
<g data-part="face.idle" data-bone="head" data-z="32" data-view="front" data-expr="idle" data-form="base,decoy" data-bb="0 -81.1 14.8 14.5"><path d="M13.1 -74.4C13.1 -72.9 12.1 -71.8 10.8 -71.8C9.5 -71.8 8.5 -72.9 8.5 -74.4C8.5 -75.9 9.5 -77 10.8 -77C12.1 -77 13.1 -75.9 13.1 -74.4Z" fill="#fffaf0" stroke="#1c1830" stroke-width="0.6" stroke-linejoin="round"/><g clip-path="url(#magic-archer-hero-c1)"><path d="M12.7 -74.5C12.7 -73.6 11.9 -72.8 11 -72.8C10 -72.8 9.3 -73.6 9.3 -74.5C9.3 -75.5 10 -76.3 11 -76.3C11.9 -76.3 12.7 -75.5 12.7 -74.5Z" fill="#6a5ab8"/><path d="M11.9 -74.5C11.9 -74 11.5 -73.6 11 -73.6C10.4 -73.6 10 -74 10 -74.5C10 -75.1 10.4 -75.5 11 -75.5C11.5 -75.5 11.9 -75.1 11.9 -74.5Z" fill="#14101c"/><path d="M14.5 -77.5C14.5 -75.6 12.8 -74.2 10.8 -74.2C8.8 -74.2 7.1 -75.6 7.1 -77.5C7.1 -79.3 8.8 -80.8 10.8 -80.8C12.8 -80.8 14.5 -79.3 14.5 -77.5Z" fill="#e8c4a0" stroke="#1c1830" stroke-width="0.5599999999999999" stroke-linejoin="round"/></g><path d="M11.1 -75.2C11.1 -74.8 10.8 -74.5 10.4 -74.5C10.1 -74.5 9.8 -74.8 9.8 -75.2C9.8 -75.6 10.1 -75.8 10.4 -75.8C10.8 -75.8 11.1 -75.6 11.1 -75.2Z" fill="#ffffff"/><path d="M11.9 -73.9C11.9 -73.8 11.8 -73.6 11.6 -73.6C11.4 -73.6 11.3 -73.8 11.3 -73.9C11.3 -74.1 11.4 -74.2 11.6 -74.2C11.8 -74.2 11.9 -74.1 11.9 -73.9Z" fill="#ffffff" data-lod="1" opacity="0.85"/><path d="M8.4 -74.4C8.4 -74.4 8.5 -74.6 8.6 -74.7C8.7 -74.8 8.9 -74.9 9.1 -74.9C9.3 -75 9.6 -75.1 9.9 -75.1C10.2 -75.1 10.5 -75.2 10.8 -75.2C11.1 -75.2 11.4 -75.1 11.7 -75.1C12 -75.1 12.3 -75 12.5 -74.9C12.7 -74.9 12.9 -74.8 13 -74.7C13.1 -74.6 13.2 -74.4 13.2 -74.4" fill="none" stroke="#1c1830" stroke-width="0.9659999999999999" stroke-linecap="round" stroke-linejoin="round"/><path d="M5.7 -74.4C5.7 -73.1 4.8 -72 3.6 -72C2.4 -72 1.5 -73.1 1.5 -74.4C1.5 -75.7 2.4 -76.8 3.6 -76.8C4.8 -76.8 5.7 -75.7 5.7 -74.4Z" fill="#fffaf0" stroke="#1c1830" stroke-width="0.6" stroke-linejoin="round"/><g clip-path="url(#magic-archer-hero-c2)"><path d="M5.3 -74.5C5.3 -73.7 4.6 -73 3.7 -73C2.9 -73 2.2 -73.7 2.2 -74.5C2.2 -75.4 2.9 -76.1 3.7 -76.1C4.6 -76.1 5.3 -75.4 5.3 -74.5Z" fill="#6a5ab8"/><path d="M4.6 -74.5C4.6 -74.1 4.2 -73.7 3.7 -73.7C3.3 -73.7 2.9 -74.1 2.9 -74.5C2.9 -75 3.3 -75.4 3.7 -75.4C4.2 -75.4 4.6 -75 4.6 -74.5Z" fill="#14101c"/><path d="M7 -77.2C7 -75.5 5.5 -74.2 3.6 -74.2C1.7 -74.2 0.2 -75.5 0.2 -77.2C0.2 -78.9 1.7 -80.2 3.6 -80.2C5.5 -80.2 7 -78.9 7 -77.2Z" fill="#e8c4a0" stroke="#1c1830" stroke-width="0.5599999999999999" stroke-linejoin="round"/></g><path d="M3.8 -75.1C3.8 -74.8 3.6 -74.5 3.3 -74.5C2.9 -74.5 2.7 -74.8 2.7 -75.1C2.7 -75.5 2.9 -75.7 3.3 -75.7C3.6 -75.7 3.8 -75.5 3.8 -75.1Z" fill="#ffffff"/><path d="M4.6 -74C4.6 -73.8 4.5 -73.7 4.3 -73.7C4.2 -73.7 4 -73.8 4 -74C4 -74.1 4.2 -74.3 4.3 -74.3C4.5 -74.3 4.6 -74.1 4.6 -74Z" fill="#ffffff" data-lod="1" opacity="0.85"/><path d="M1.4 -74.4C1.4 -74.4 1.5 -74.6 1.6 -74.7C1.7 -74.7 1.9 -74.8 2.1 -74.9C2.3 -74.9 2.5 -75 2.8 -75C3 -75.1 3.3 -75.1 3.6 -75.1C3.9 -75.1 4.2 -75.1 4.4 -75C4.7 -75 4.9 -74.9 5.1 -74.9C5.3 -74.8 5.5 -74.7 5.6 -74.7C5.7 -74.6 5.8 -74.4 5.8 -74.4" fill="none" stroke="#1c1830" stroke-width="0.882" stroke-linecap="round" stroke-linejoin="round"/><path d="M13.7 -78.1C13.7 -78.1 11.6 -78.9 10.7 -79.1C9.7 -79.3 8.4 -79.3 8 -79.4C7.5 -79.5 8.1 -79.9 8.1 -79.9C8.1 -79.9 10 -80.5 10.9 -80.2C11.9 -79.9 13.7 -78.1 13.7 -78.1Z" fill="#5a4a6a"/><path d="M1 -77.8C1 -77.8 2.6 -79.4 3.5 -79.7C4.3 -80 5.6 -79.6 6 -79.5C6.5 -79.3 6.2 -79 6.2 -79C6.2 -79 4.6 -78.9 3.7 -78.7C2.9 -78.5 1 -77.8 1 -77.8Z" fill="#5a4a6a"/><path d="M6.4 -67.4C6.8 -67.4 8.3 -67 9 -67.1C9.8 -67.3 10.5 -68 10.8 -68.2" fill="none" stroke="#1c1830" stroke-width="0.8" stroke-linecap="round" stroke-linejoin="round"/></g>
<g data-part="face.attack" data-bone="head" data-z="32" data-view="front" data-expr="attack,ability" data-form="base,decoy" data-bb="1.2 -86.7 15.4 19.7"><path d="M1.6 -74.7C1.9 -74.5 2.9 -73.9 3.6 -73.9C4.3 -73.9 5.3 -74.5 5.6 -74.7" fill="none" stroke="#1c1830" stroke-width="0.8" stroke-linecap="round" stroke-linejoin="round"/><path d="M14.2 -74.4C14.2 -72.2 12.7 -70.5 10.8 -70.5C8.9 -70.5 7.4 -72.2 7.4 -74.4C7.4 -76.6 8.9 -78.3 10.8 -78.3C12.7 -78.3 14.2 -76.6 14.2 -74.4Z" fill="#fffaf0" stroke="#1c1830" stroke-width="0.816" stroke-linejoin="round"/><g clip-path="url(#magic-archer-hero-c3)"><path d="M14 -74C14 -72.6 12.9 -71.5 11.5 -71.5C10.1 -71.5 9 -72.6 9 -74C9 -75.4 10.1 -76.5 11.5 -76.5C12.9 -76.5 14 -75.4 14 -74Z" fill="#6a5ab8"/><path d="M12.9 -74C12.9 -73.2 12.3 -72.6 11.5 -72.6C10.8 -72.6 10.1 -73.2 10.1 -74C10.1 -74.8 10.8 -75.4 11.5 -75.4C12.3 -75.4 12.9 -74.8 12.9 -74Z" fill="#14101c"/><path d="M16.2 -81.4C16.2 -78.7 13.8 -76.6 10.8 -76.6C7.8 -76.6 5.4 -78.7 5.4 -81.4C5.4 -84.1 7.8 -86.3 10.8 -86.3C13.8 -86.3 16.2 -84.1 16.2 -81.4Z" fill="#e8c4a0" stroke="#1c1830" stroke-width="0.7616" stroke-linejoin="round"/></g><path d="M11.7 -74.9C11.7 -74.4 11.2 -74 10.7 -74C10.2 -74 9.8 -74.4 9.8 -74.9C9.8 -75.5 10.2 -75.9 10.7 -75.9C11.2 -75.9 11.7 -75.5 11.7 -74.9Z" fill="#ffffff"/><path d="M12.9 -73.1C12.9 -72.9 12.7 -72.7 12.5 -72.7C12.2 -72.7 12.1 -72.9 12.1 -73.1C12.1 -73.3 12.2 -73.5 12.5 -73.5C12.7 -73.5 12.9 -73.3 12.9 -73.1Z" fill="#ffffff" data-lod="1" opacity="0.85"/><path d="M7.3 -74.4C7.3 -74.6 7.4 -75.3 7.5 -75.7C7.7 -76.1 8 -76.5 8.3 -76.8C8.6 -77.1 9 -77.3 9.4 -77.5C9.9 -77.7 10.3 -77.8 10.8 -77.8C11.3 -77.8 11.7 -77.7 12.2 -77.5C12.6 -77.3 13 -77.1 13.3 -76.8C13.6 -76.5 13.9 -76.1 14.1 -75.7C14.2 -75.3 14.3 -74.6 14.3 -74.4" fill="none" stroke="#1c1830" stroke-width="1.428" stroke-linecap="round" stroke-linejoin="round"/><path d="M6.6 -67.6C6.9 -67.7 7.9 -68 8.6 -68C9.3 -68 10.3 -67.5 10.6 -67.4" fill="none" stroke="#1c1830" stroke-width="0.8" stroke-linecap="round" stroke-linejoin="round"/></g>
<g data-part="face.hurt" data-bone="head" data-z="32" data-view="front" data-expr="hurt" data-form="base,decoy" data-bb="0.8 -81.3 12.8 15.5"><path d="M8.5 -74C8.9 -74.2 10 -75 10.8 -75C11.6 -75 12.7 -74.2 13.1 -74" fill="none" stroke="#1c1830" stroke-width="0.9659999999999999" stroke-linecap="round" stroke-linejoin="round"/><path d="M5.8 -74.6C5.8 -73.2 4.8 -72.1 3.6 -72.1C2.4 -72.1 1.4 -73.2 1.4 -74.6C1.4 -76 2.4 -77.1 3.6 -77.1C4.8 -77.1 5.8 -76 5.8 -74.6Z" fill="#fffaf0" stroke="#1c1830" stroke-width="0.6" stroke-linejoin="round"/><g clip-path="url(#magic-archer-hero-c4)"><path d="M5.3 -74.5C5.3 -73.6 4.6 -72.9 3.7 -72.9C2.8 -72.9 2 -73.6 2 -74.5C2 -75.4 2.8 -76.1 3.7 -76.1C4.6 -76.1 5.3 -75.4 5.3 -74.5Z" fill="#6a5ab8"/><path d="M4.5 -74.5C4.5 -74 4.1 -73.6 3.7 -73.6C3.2 -73.6 2.8 -74 2.8 -74.5C2.8 -75 3.2 -75.4 3.7 -75.4C4.1 -75.4 4.5 -75 4.5 -74.5Z" fill="#14101c"/></g><path d="M3.7 -75.1C3.7 -74.8 3.5 -74.5 3.1 -74.5C2.8 -74.5 2.5 -74.8 2.5 -75.1C2.5 -75.5 2.8 -75.7 3.1 -75.7C3.5 -75.7 3.7 -75.5 3.7 -75.1Z" fill="#ffffff"/><path d="M4.6 -73.9C4.6 -73.8 4.4 -73.6 4.3 -73.6C4.1 -73.6 4 -73.8 4 -73.9C4 -74.1 4.1 -74.2 4.3 -74.2C4.4 -74.2 4.6 -74.1 4.6 -73.9Z" fill="#ffffff" data-lod="1" opacity="0.85"/><path d="M1.3 -74.6C1.3 -74.8 1.4 -75.3 1.5 -75.6C1.6 -75.9 1.8 -76.2 2 -76.5C2.2 -76.7 2.5 -76.9 2.7 -77C3 -77.2 3.3 -77.2 3.6 -77.2C3.9 -77.2 4.2 -77.2 4.5 -77C4.7 -76.9 5 -76.7 5.2 -76.5C5.4 -76.2 5.6 -75.9 5.7 -75.6C5.8 -75.3 5.9 -74.8 5.9 -74.6" fill="none" stroke="#1c1830" stroke-width="0.9261" stroke-linecap="round" stroke-linejoin="round"/><path d="M13.7 -78.4C13.7 -78.4 11.6 -79.5 10.6 -79.8C9.6 -80.2 8.3 -80.3 7.9 -80.4C7.5 -80.6 8.1 -80.9 8.1 -80.9C8.1 -80.9 10.1 -81.3 11 -80.8C11.9 -80.4 13.7 -78.4 13.7 -78.4Z" fill="#5a4a6a"/><path d="M1 -78.3C1 -78.3 2.6 -80.1 3.4 -80.5C4.2 -80.9 5.5 -80.7 6 -80.6C6.5 -80.6 6.2 -80.2 6.2 -80.2C6.2 -80.2 4.7 -79.8 3.8 -79.5C2.9 -79.2 1 -78.3 1 -78.3Z" fill="#5a4a6a"/><path d="M7 -67.7C7.1 -68 8 -68 8.6 -68C9.2 -68 10.1 -68 10.3 -67.7C10.4 -67.4 10 -66.5 9.6 -66.3C9.2 -66.1 8 -66.1 7.6 -66.3C7.2 -66.5 6.8 -67.4 7 -67.7Z" fill="#4a1c24" stroke="#1c1830" stroke-width="0.6" stroke-linejoin="round"/><g clip-path="url(#magic-archer-hero-c5)"><path d="M7.5 -68.2L9.7 -68.2Q10 -68.2 10 -68L10 -68Q10 -67.7 9.7 -67.7L7.5 -67.7Q7.2 -67.7 7.2 -68L7.2 -68Q7.2 -68.2 7.5 -68.2Z" fill="#fffaf0"/></g></g>
<g data-part="face.stun" data-bone="head" data-z="32" data-view="front" data-expr="stun" data-form="base,decoy" data-bb="1 -77.2 12.6 10.7"><path d="M13.3 -74.4C13.3 -73 12.2 -71.9 10.8 -71.9C9.4 -71.9 8.3 -73 8.3 -74.4C8.3 -75.8 9.4 -76.9 10.8 -76.9C12.2 -76.9 13.3 -75.8 13.3 -74.4Z" fill="#fffaf0" stroke="#1c1830" stroke-width="0.5519999999999999" stroke-linejoin="round"/><path d="M10.8 -74.4C10.8 -74.4 10.9 -74.4 10.9 -74.4C10.9 -74.3 10.9 -74.3 10.9 -74.2C10.9 -74.2 10.8 -74.1 10.8 -74.1C10.7 -74.1 10.6 -74.1 10.6 -74.1C10.5 -74.1 10.4 -74.2 10.4 -74.2C10.3 -74.3 10.3 -74.4 10.2 -74.5C10.2 -74.6 10.3 -74.7 10.3 -74.8C10.4 -74.9 10.5 -75 10.6 -75.1C10.7 -75.2 10.8 -75.2 11 -75.2C11.1 -75.2 11.3 -75.2 11.5 -75.1C11.6 -75 11.7 -74.8 11.8 -74.6C11.9 -74.5 11.9 -74.2 11.9 -74.1C11.8 -73.9 11.7 -73.6 11.6 -73.5C11.4 -73.3 11.2 -73.2 11 -73.1C10.8 -73.1 10.5 -73 10.3 -73.1C10 -73.2 9.8 -73.3 9.6 -73.5C9.4 -73.7 9.3 -74 9.2 -74.3C9.2 -74.6 9.2 -74.9 9.3 -75.2C9.4 -75.4 9.6 -75.7 9.9 -75.9C10.1 -76.1 10.5 -76.2 10.8 -76.3C11.1 -76.3 11.5 -76.2 11.8 -76.1C12.1 -75.9 12.4 -75.6 12.6 -75.3C12.8 -75 12.9 -74.6 12.9 -74.2C12.9 -73.8 12.8 -73.4 12.6 -73.1C12.4 -72.8 12 -72.4 11.7 -72.2C11.3 -72.1 10.6 -72.1 10.4 -72" fill="none" stroke="#1c1830" stroke-width="0.69" stroke-linecap="round" stroke-linejoin="round"/><path d="M5.9 -74.4C5.9 -73.1 4.9 -72.1 3.6 -72.1C2.3 -72.1 1.3 -73.1 1.3 -74.4C1.3 -75.7 2.3 -76.7 3.6 -76.7C4.9 -76.7 5.9 -75.7 5.9 -74.4Z" fill="#fffaf0" stroke="#1c1830" stroke-width="0.504" stroke-linejoin="round"/><path d="M3.6 -74.4C3.6 -74.4 3.7 -74.4 3.7 -74.4C3.7 -74.3 3.7 -74.3 3.7 -74.2C3.7 -74.2 3.6 -74.2 3.6 -74.1C3.5 -74.1 3.5 -74.1 3.4 -74.1C3.3 -74.1 3.3 -74.2 3.2 -74.2C3.2 -74.3 3.1 -74.4 3.1 -74.5C3.1 -74.6 3.1 -74.7 3.1 -74.8C3.2 -74.9 3.3 -75 3.4 -75C3.5 -75.1 3.6 -75.1 3.8 -75.1C3.9 -75.1 4.1 -75.1 4.2 -75C4.3 -74.9 4.4 -74.8 4.5 -74.6C4.6 -74.5 4.6 -74.3 4.6 -74.1C4.5 -73.9 4.4 -73.7 4.3 -73.6C4.2 -73.4 4 -73.3 3.8 -73.2C3.6 -73.2 3.3 -73.2 3.1 -73.2C2.9 -73.3 2.7 -73.4 2.5 -73.6C2.3 -73.8 2.2 -74 2.2 -74.3C2.1 -74.5 2.1 -74.9 2.2 -75.1C2.3 -75.3 2.5 -75.6 2.8 -75.8C3 -75.9 3.3 -76.1 3.6 -76.1C3.9 -76.1 4.3 -76.1 4.5 -75.9C4.8 -75.8 5.1 -75.5 5.3 -75.2C5.4 -75 5.5 -74.6 5.5 -74.2C5.5 -73.9 5.4 -73.5 5.2 -73.2C5 -72.9 4.7 -72.6 4.4 -72.4C4.1 -72.3 3.4 -72.3 3.2 -72.2" fill="none" stroke="#1c1830" stroke-width="0.63" stroke-linecap="round" stroke-linejoin="round"/><path d="M6.4 -67.4C6.6 -67.3 7.4 -66.8 7.9 -66.9C8.4 -66.9 8.8 -67.7 9.3 -67.8C9.8 -67.8 10.6 -67.2 10.8 -67.1" fill="none" stroke="#1c1830" stroke-width="0.7" stroke-linecap="round" stroke-linejoin="round"/></g>
<g data-part="face.death" data-bone="head" data-z="32" data-view="front" data-expr="death" data-form="base,decoy" data-bb="1.5 -76.7 11.6 9.9"><path d="M9 -76.2L12.6 -72.6" fill="none" stroke="#1c1830" stroke-width="0.9199999999999999" stroke-linecap="round" stroke-linejoin="round"/><path d="M12.6 -76.2L9 -72.6" fill="none" stroke="#1c1830" stroke-width="0.9199999999999999" stroke-linecap="round" stroke-linejoin="round"/><path d="M1.9 -76.1L5.3 -72.7" fill="none" stroke="#1c1830" stroke-width="0.8400000000000001" stroke-linecap="round" stroke-linejoin="round"/><path d="M5.3 -76.1L1.9 -72.7" fill="none" stroke="#1c1830" stroke-width="0.8400000000000001" stroke-linecap="round" stroke-linejoin="round"/><path d="M6.7 -67.2C7 -67.3 8 -68.1 8.6 -68.1C9.2 -68.1 10.2 -67.3 10.5 -67.2" fill="none" stroke="#1c1830" stroke-width="0.8" stroke-linecap="round" stroke-linejoin="round"/></g>
<g data-part="face.sleep" data-bone="head" data-z="32" data-view="front" data-expr="sleep" data-form="base,decoy" data-bb="1 -80.3 12.7 13.5"><path d="M8.5 -74.7C8.9 -74.6 10 -73.9 10.8 -73.9C11.6 -73.9 12.7 -74.6 13.1 -74.7" fill="none" stroke="#1c1830" stroke-width="0.8739999999999999" stroke-linecap="round" stroke-linejoin="round"/><path d="M1.5 -74.7C1.9 -74.6 2.9 -73.9 3.6 -73.9C4.3 -73.9 5.4 -74.6 5.7 -74.7" fill="none" stroke="#1c1830" stroke-width="0.8" stroke-linecap="round" stroke-linejoin="round"/><path d="M13.7 -78.3C13.7 -78.3 11.7 -78.9 10.7 -79C9.8 -79.1 8.4 -78.8 8 -78.9C7.6 -79 8.1 -79.4 8.1 -79.4C8.1 -79.4 9.9 -80.3 10.9 -80.1C11.8 -79.9 13.7 -78.3 13.7 -78.3Z" fill="#5a4a6a"/><path d="M1 -78C1 -78 2.7 -79.5 3.5 -79.6C4.4 -79.8 5.6 -79.2 6.1 -79C6.5 -78.8 6.2 -78.5 6.2 -78.5C6.2 -78.5 4.5 -78.6 3.7 -78.6C2.8 -78.5 1 -78 1 -78Z" fill="#5a4a6a"/><path d="M7.3 -67.5C7.5 -67.4 8.2 -67.1 8.6 -67.1C9 -67.1 9.7 -67.4 9.9 -67.5" fill="none" stroke="#1c1830" stroke-width="0.7" stroke-linecap="round" stroke-linejoin="round"/></g>
<g data-part="nose" data-bone="head" data-z="33" data-view="front" data-form="base,decoy" data-bb="6.2 -72.5 3.9 3.5"><path d="M9.9 -70.8C9.9 -70 9.1 -69.3 8.2 -69.3C7.3 -69.3 6.5 -70 6.5 -70.8C6.5 -71.6 7.3 -72.3 8.2 -72.3C9.1 -72.3 9.9 -71.6 9.9 -70.8Z" fill="#dca882" data-mat="skin" data-bb="6.5 -72.3 3.4 3" data-line="#b07a5c" data-lw="0.5"/></g>
<g data-part="headBack" data-bone="head" data-z="33" data-view="back" data-form="base,decoy" data-bb="-10.1 -84.8 28.3 23.6"><path d="M-6 -82C-2.7 -84 10.7 -84 14 -82C17.3 -80 15 -73.2 14 -70C13 -66.8 10.5 -64 8 -63C5.5 -62 1.3 -62.8 -1 -64C-3.3 -65.2 -5.2 -67 -6 -70C-6.8 -73 -9.3 -80 -6 -82Z" fill="#5a4a6a" data-mat="hair" data-bb="-9.3 -84 26.7 22"/></g>
<g data-part="hat" data-bone="hat" data-z="36" data-zb="36" data-form="base,decoy" data-bb="-14.8 -101.1 37.6 22.9"><path d="M-14 -79C-14 -79 -9 -82.9 -6 -84C-3 -85.1 0.3 -85.5 4 -85.4C7.7 -85.3 13 -84.7 16 -83.6C19 -82.5 22 -79 22 -79C22 -79 15 -80.1 12 -80.4C9 -80.7 7 -81 4 -81C1 -81 -3 -80.7 -6 -80.4C-9 -80.1 -14 -79 -14 -79Z" fill="#4a3a90" data-mat="cloth" data-bb="-14 -85.5 36 6.5"/><path d="M-3 -83C-5.3 -84.8 -3.2 -91.2 -2 -94C-0.8 -96.8 1.8 -99.7 4 -100C6.2 -100.3 9.7 -98.4 11 -95.6C12.3 -92.8 14.3 -85.1 12 -83C9.7 -80.9 -0.7 -81.2 -3 -83Z" fill="#6a52b8" data-mat="cloth" data-bb="-5.3 -100.3 19.7 19.4"/></g>
<g data-part="hatband" data-bone="hat" data-z="36.5" data-zb="36.5" data-form="base,decoy" data-team="1" data-bb="-5.8 -87.5 20.6 5.4"><path d="M-2.8 -86.6C-0.3 -87.2 9.5 -87.2 12 -86.6C14.5 -86 14.5 -83.6 12 -83C9.5 -82.4 -0.5 -82.4 -3 -83C-5.5 -83.6 -5.3 -86 -2.8 -86.6Z" fill="#ff00f1" data-mat="cloth" data-bb="-5.5 -87.2 20 4.8" data-line="#ff00f4" data-lw="0.6"/></g>
<g data-part="rings" data-bone="hat" data-z="37" data-zb="37" data-form="base,decoy" data-bb="-9.2 -106 27.7 28.1"><path d="M17.2 -94.1C17.7 -92 12.5 -88.9 5.6 -87.1C-1.4 -85.4 -7.5 -85.7 -8 -87.9C-8.5 -90 -3.3 -93.1 3.6 -94.9C10.6 -96.6 16.7 -96.3 17.2 -94.1Z" fill="none" stroke="#c8a046" stroke-width="1.4" stroke-linecap="round" stroke-linejoin="round"/><path d="M9.2 -89C6.4 -82.7 2.1 -78.5 -0.4 -79.7C-3 -80.8 -2.8 -86.8 0 -93C2.8 -99.3 7.1 -103.5 9.6 -102.3C12.2 -101.2 12 -95.2 9.2 -89Z" fill="none" stroke="#c8a046" stroke-width="1.2" stroke-linecap="round" stroke-linejoin="round"/><path d="M6.4 -103.4C6.4 -102.4 5.6 -101.6 4.6 -101.6C3.6 -101.6 2.8 -102.4 2.8 -103.4C2.8 -104.4 3.6 -105.2 4.6 -105.2C5.6 -105.2 6.4 -104.4 6.4 -103.4Z" fill="#f8e38a" data-mat="gem" data-bb="2.8 -105.2 3.6 3.6"/><g data-lod="2"><path d="M17.7 -94.1C17.7 -93.8 17.5 -93.6 17.2 -93.6C17 -93.6 16.8 -93.8 16.8 -94.1C16.8 -94.3 17 -94.5 17.2 -94.5C17.5 -94.5 17.7 -94.3 17.7 -94.1Z" fill="#8a6a1a"/><path d="M16.5 -91.7C16.5 -91.5 16.3 -91.3 16 -91.3C15.8 -91.3 15.6 -91.5 15.6 -91.7C15.6 -92 15.8 -92.2 16 -92.2C16.3 -92.2 16.5 -92 16.5 -91.7Z" fill="#8a6a1a"/><path d="M12.2 -89.2C12.2 -88.9 12 -88.7 11.7 -88.7C11.5 -88.7 11.3 -88.9 11.3 -89.2C11.3 -89.4 11.5 -89.6 11.7 -89.6C12 -89.6 12.2 -89.4 12.2 -89.2Z" fill="#8a6a1a"/><path d="M6 -87.1C6 -86.9 5.8 -86.7 5.6 -86.7C5.3 -86.7 5.1 -86.9 5.1 -87.1C5.1 -87.4 5.3 -87.6 5.6 -87.6C5.8 -87.6 6 -87.4 6 -87.1Z" fill="#8a6a1a"/><path d="M-0.4 -86.1C-0.4 -85.8 -0.6 -85.6 -0.9 -85.6C-1.1 -85.6 -1.3 -85.8 -1.3 -86.1C-1.3 -86.3 -1.1 -86.5 -0.9 -86.5C-0.6 -86.5 -0.4 -86.3 -0.4 -86.1Z" fill="#8a6a1a"/><path d="M-5.4 -86.4C-5.4 -86.1 -5.6 -85.9 -5.9 -85.9C-6.1 -85.9 -6.3 -86.1 -6.3 -86.4C-6.3 -86.6 -6.1 -86.8 -5.9 -86.8C-5.6 -86.8 -5.4 -86.6 -5.4 -86.4Z" fill="#8a6a1a"/><path d="M-7.6 -87.9C-7.6 -87.7 -7.8 -87.5 -8 -87.5C-8.3 -87.5 -8.5 -87.7 -8.5 -87.9C-8.5 -88.2 -8.3 -88.4 -8 -88.4C-7.8 -88.4 -7.6 -88.2 -7.6 -87.9Z" fill="#8a6a1a"/><path d="M-6.4 -90.3C-6.4 -90 -6.6 -89.8 -6.8 -89.8C-7.1 -89.8 -7.3 -90 -7.3 -90.3C-7.3 -90.5 -7.1 -90.7 -6.8 -90.7C-6.6 -90.7 -6.4 -90.5 -6.4 -90.3Z" fill="#8a6a1a"/><path d="M-2.1 -92.8C-2.1 -92.6 -2.3 -92.4 -2.5 -92.4C-2.8 -92.4 -3 -92.6 -3 -92.8C-3 -93.1 -2.8 -93.3 -2.5 -93.3C-2.3 -93.3 -2.1 -93.1 -2.1 -92.8Z" fill="#8a6a1a"/><path d="M4.1 -94.9C4.1 -94.6 3.9 -94.4 3.6 -94.4C3.4 -94.4 3.2 -94.6 3.2 -94.9C3.2 -95.1 3.4 -95.3 3.6 -95.3C3.9 -95.3 4.1 -95.1 4.1 -94.9Z" fill="#8a6a1a"/><path d="M10.5 -95.9C10.5 -95.7 10.3 -95.5 10.1 -95.5C9.8 -95.5 9.6 -95.7 9.6 -95.9C9.6 -96.2 9.8 -96.4 10.1 -96.4C10.3 -96.4 10.5 -96.2 10.5 -95.9Z" fill="#8a6a1a"/><path d="M15.5 -95.6C15.5 -95.4 15.3 -95.2 15.1 -95.2C14.8 -95.2 14.6 -95.4 14.6 -95.6C14.6 -95.9 14.8 -96.1 15.1 -96.1C15.3 -96.1 15.5 -95.9 15.5 -95.6Z" fill="#8a6a1a"/></g></g>
<g data-part="armF" data-bone="armF" data-z="40" data-zb="12" data-form="base,decoy" data-bb="4.1 -73.5 15.9 26.6"><path d="M5.6 -66.7C4.9 -69.6 5.5 -69.4 6 -70.2C6.4 -71.1 7.8 -72.2 8.7 -72.4C9.7 -72.7 11.4 -72.5 12.2 -72C13.1 -71.6 13.5 -72.1 14.4 -69.3C15.4 -66.4 18.1 -56.1 18.6 -53.2C19.2 -50.3 18.7 -50.7 18.3 -50C17.8 -49.2 16.6 -48.2 15.8 -48C14.9 -47.7 13.3 -47.9 12.6 -48.3C11.8 -48.8 11.6 -48.1 10.6 -50.8C9.5 -53.6 6.3 -63.8 5.6 -66.7Z" fill="#6a52b8" data-mat="cloth" data-bb="4.9 -72.7 14.3 25"/></g>
<g data-part="bow" data-bone="prop" data-z="41" data-zb="13" data-form="base,decoy" data-sig="1" data-bb="10.2 -73.7 9.2 47.4"><path d="M11 -72C11 -72.9 14 -72.6 14 -72.6C14 -72.6 12.5 -71.1 13 -69C13.5 -66.9 16.2 -63.2 17 -60C17.8 -56.8 18 -53.3 18 -50C18 -46.7 17.8 -43.2 17 -40C16.2 -36.8 13.5 -33.1 13 -31C12.5 -28.9 14 -27.6 14 -27.6C14 -27.6 11 -27.1 11 -28C11 -28.9 13.2 -30.7 14 -33C14.8 -35.3 15.3 -39.2 15.6 -42C15.9 -44.8 16 -47.3 16 -50C16 -52.7 15.9 -55.2 15.6 -58C15.3 -60.8 14.8 -64.7 14 -67C13.2 -69.3 11 -71.1 11 -72Z" fill="#6a4a2a" data-mat="wood" data-bb="11 -72.9 7 45.8"/><path d="M12.4 -71L12.2 -29" fill="none" stroke="#f8f0d8" stroke-width="0.55" stroke-linecap="round" stroke-linejoin="round"/><path d="M16.4 -53L17.2 -53Q18.6 -53 18.6 -51.6L18.6 -48Q18.6 -46.6 17.2 -46.6L16.4 -46.6Q15 -46.6 15 -48L15 -51.6Q15 -53 16.4 -53Z" fill="#3a2a1a" data-mat="leather" data-bb="15 -53 3.6 6.4" data-lod="1"/><path d="M11.4 -70L11.2 -30" fill="none" stroke="#fff0a8" stroke-width="0.5" stroke-linecap="round" stroke-linejoin="round"/><path d="M13.6 -70L13.4 -30" fill="none" stroke="#fff0a8" stroke-width="0.5" stroke-linecap="round" stroke-linejoin="round"/></g>
<g data-part="scope" data-bone="prop" data-z="41.5" data-zb="13.5" data-form="base,decoy" data-state="idle,walk,hit,spawn,death,stun,charge" data-bb="16.2 -56 13 5.6"><path d="M18.2 -55L24.8 -55Q26 -55 26 -53.8L26 -52.6Q26 -51.4 24.8 -51.4L18.2 -51.4Q17 -51.4 17 -52.6L17 -53.8Q17 -55 18.2 -55Z" fill="#c8a046" data-mat="gold" data-bb="17 -55 9 3.6"/><path d="M28.4 -53.2C28.4 -52.1 27.5 -51.2 26.4 -51.2C25.3 -51.2 24.4 -52.1 24.4 -53.2C24.4 -54.3 25.3 -55.2 26.4 -55.2C27.5 -55.2 28.4 -54.3 28.4 -53.2Z" fill="#9ad8f0" data-mat="glass" data-bb="24.4 -55.2 4 4" data-line="#6a5a20"/></g>
<g data-part="scopeOut" data-bone="prop" data-z="41.5" data-zb="13.5" data-form="base,decoy" data-state="attack,ability" data-bb="16.2 -56.4 21.8 6.2"><path d="M18.4 -55.6L23.6 -55.6Q25 -55.6 25 -54.2L25 -52.4Q25 -51 23.6 -51L18.4 -51Q17 -51 17 -52.4L17 -54.2Q17 -55.6 18.4 -55.6Z" fill="#c8a046" data-mat="gold" data-bb="17 -55.6 8 4.6"/><path d="M25.2 -55L29.8 -55Q31 -55 31 -53.8L31 -52.6Q31 -51.4 29.8 -51.4L25.2 -51.4Q24 -51.4 24 -52.6L24 -53.8Q24 -55 25.2 -55Z" fill="#d8b860" data-mat="gold" data-bb="24 -55 7 3.6"/><path d="M31 -54.4L34 -54.4Q35 -54.4 35 -53.4L35 -52.8Q35 -51.8 34 -51.8L31 -51.8Q30 -51.8 30 -52.8L30 -53.4Q30 -54.4 31 -54.4Z" fill="#c8a046" data-mat="gold" data-bb="30 -54.4 5 2.6"/><path d="M37.2 -53.1C37.2 -52.1 36.4 -51.3 35.4 -51.3C34.4 -51.3 33.6 -52.1 33.6 -53.1C33.6 -54.1 34.4 -54.9 35.4 -54.9C36.4 -54.9 37.2 -54.1 37.2 -53.1Z" fill="#9ad8f0" data-mat="glass" data-bb="33.6 -54.9 3.6 3.6" data-line="#6a5a20"/></g>
<g data-part="handF" data-bone="handF" data-z="42" data-zb="14" data-form="base,decoy" data-bb="11.8 -53.8 7.6 7.6"><path d="M18.6 -50C18.6 -48.3 17.3 -47 15.6 -47C13.9 -47 12.6 -48.3 12.6 -50C12.6 -51.7 13.9 -53 15.6 -53C17.3 -53 18.6 -51.7 18.6 -50Z" fill="#e8c4a0" data-mat="skin" data-bb="12.6 -53 6 6"/></g>
<g data-part="decoyShimmer" data-bone="torso" data-z="48" data-form="decoy" data-glow="1" data-bb="-16 -97.2 36 87.2"><path d="M20 -50C20 -27.9 11.9 -10 2 -10C-7.9 -10 -16 -27.9 -16 -50C-16 -72.1 -7.9 -90 2 -90C11.9 -90 20 -72.1 20 -50Z" fill="#7af0d0" opacity="0.35"/><path d="M-8.8 -80C-8.8 -79.3 -9.3 -78.8 -10 -78.8C-10.7 -78.8 -11.2 -79.3 -11.2 -80C-11.2 -80.7 -10.7 -81.2 -10 -81.2C-9.3 -81.2 -8.8 -80.7 -8.8 -80Z" fill="#c8fff0"/><path d="M13.2 -66C13.2 -65.3 12.7 -64.8 12 -64.8C11.3 -64.8 10.8 -65.3 10.8 -66C10.8 -66.7 11.3 -67.2 12 -67.2C12.7 -67.2 13.2 -66.7 13.2 -66Z" fill="#c8fff0"/><path d="M-4.8 -30C-4.8 -29.3 -5.3 -28.8 -6 -28.8C-6.7 -28.8 -7.2 -29.3 -7.2 -30C-7.2 -30.7 -6.7 -31.2 -6 -31.2C-5.3 -31.2 -4.8 -30.7 -4.8 -30Z" fill="#c8fff0"/><path d="M15.2 -24C15.2 -23.3 14.7 -22.8 14 -22.8C13.3 -22.8 12.8 -23.3 12.8 -24C12.8 -24.7 13.3 -25.2 14 -25.2C14.7 -25.2 15.2 -24.7 15.2 -24Z" fill="#c8fff0"/><path d="M1.2 -96C1.2 -95.3 0.7 -94.8 0 -94.8C-0.7 -94.8 -1.2 -95.3 -1.2 -96C-1.2 -96.7 -0.7 -97.2 0 -97.2C0.7 -97.2 1.2 -96.7 1.2 -96Z" fill="#c8fff0"/></g>
</svg>
